# xmcd
#
# Track frame offsets:
#	150
#	17444
#	39918
#	60205
#	81042
#	104603
#	132280
#	158422
#	174408
#	194078
#	219994
#	248877
#
# Disc length: 3549 seconds
# Revision: 2
# Processed by: cddbd v1.5.2PL0 Copyright (c) Steve Scherf et al.
# Submitted via: dBpowerAMP V12.0
#
DISCID=900ddb0c
DTITLE=Lucinda Williams - Blessed
DYEAR=2011
DGENRE=Country
TTITLE0=Buttercup
TTITLE1=I Don't Know How You're Livin'
TTITLE2=Copenhagen
TTITLE3=Born to Be Loved
TTITLE4=Seeing Black
TTITLE5=Soldier's Song
TTITLE6=Blessed
TTITLE7=Sweet Love
TTITLE8=Ugly Truth
TTITLE9=Convince Me
TTITLE10=Awakening
TTITLE11=Kiss Like Your Kiss
EXTD=
EXTT0=
EXTT1=
EXTT2=
EXTT3=
EXTT4=
EXTT5=
EXTT6=
EXTT7=
EXTT8=
EXTT9=
EXTT10=
EXTT11=
PLAYORDER=
